<svg version="1.1" id="Layer_1" xmlns="http://www.w3.org/2000/svg" xmlns:xlink="http://www.w3.org/1999/xlink" x="0px" y="0px" viewBox="0 0 24 24" style="enable-background:new 0 0 24 24;" xml:space="preserve">
<style type="text/css">
	.st0{fill:url(#SVGID_1_);}
	.st1{fill:url(#SVGID_2_);}
	.st2{fill:url(#SVGID_3_);}
	.st3{fill:url(#SVGID_4_);}
	.st4{fill:#FE3434;}
	.st5{fill:#FFCD6F;}
	.st6{fill:url(#SVGID_5_);}
	.st7{fill:url(#SVGID_6_);}
	.st8{fill:url(#SVGID_7_);}
	.st9{fill:url(#SVGID_8_);}
	.st10{fill:url(#SVGID_9_);}
	.st11{fill:url(#SVGID_10_);}
	.st12{fill:url(#SVGID_11_);}
	.st13{fill:url(#SVGID_12_);}
	.st14{fill:url(#SVGID_13_);}
	.st15{fill:url(#SVGID_14_);}
	.st16{fill:url(#SVGID_15_);}
	.st17{fill:url(#SVGID_16_);}
	.st18{fill:url(#SVGID_17_);}
	.st19{fill:url(#SVGID_18_);}
	.st20{fill:url(#SVGID_19_);}
	.st21{fill:url(#SVGID_20_);}
	.st22{fill:url(#SVGID_21_);}
	.st23{fill:url(#SVGID_22_);}
	.st24{fill:url(#SVGID_23_);}
	.st25{fill:url(#SVGID_24_);}
	.st26{fill:url(#SVGID_25_);}
	.st27{fill:url(#SVGID_26_);}
	.st28{fill:url(#SVGID_27_);}
	.st29{fill:url(#SVGID_28_);}
	.st30{fill:url(#SVGID_29_);}
	.st31{fill:url(#SVGID_30_);}
	.st32{fill:url(#SVGID_31_);}
	.st33{fill:url(#SVGID_32_);}
	.st34{fill:url(#SVGID_33_);}
	.st35{fill:url(#SVGID_34_);}
	.st36{fill:url(#SVGID_35_);}
	.st37{fill:url(#SVGID_36_);}
	.st38{fill:url(#SVGID_37_);}
	.st39{fill:url(#SVGID_38_);}
</style>
<g>
</g>
<linearGradient id="SVGID_1_" gradientUnits="userSpaceOnUse" x1="6.0768" y1="20.7167" x2="20.0782" y2="4.0305">
<stop offset="5.025126e-03" style="stop-color: rgb(38, 155, 179);" id="id_109"></stop>
<stop offset="1" style="stop-color: rgb(37, 159, 184);" id="id_110"></stop>
</linearGradient>
<path class="st0" d="M15.4,18.3h-1.6c-0.2,0-0.4,0.2-0.4,0.4c0,0.2,0.2,0.4,0.4,0.4h1.6c0.2,0,0.4,0.2,0.4,0.4S15.6,20,15.4,20h-4.2
	c-0.6,0-1.2-0.3-1.6-0.8l-1-1.2c-0.5-0.7-1.3-1-2.2-1.1v-2.4h1.5c0.7,0,1.4,0.3,2,0.8l2.2,2.1c0.2,0.2,0.2,0.4,0,0.6
	c-0.2,0.2-0.4,0.2-0.6,0l-1.7-1.6c-0.2-0.2-0.4-0.1-0.6,0S9,16.9,9.2,17l1.7,1.6c0.2,0.2,0.5,0.3,0.8,0.3c0.3,0,0.7-0.1,0.9-0.4
	c0.4-0.5,0.4-1.2,0-1.7l-2.2-2.1c-0.7-0.7-1.6-1-2.5-1H6.2c-0.2-0.4-0.5-0.6-0.9-0.6H3.4c-0.2,0-0.4,0.2-0.4,0.4v3
	c0,0.2,0.2,0.4,0.4,0.4c0.2,0,0.4-0.2,0.4-0.4v-2.6h1.5c0.1,0,0.2,0.1,0.2,0.2v3.3c0,0.1-0.1,0.2-0.2,0.2H4.9
	c-0.2,0-0.4,0.2-0.4,0.4c0,0.2,0.2,0.4,0.4,0.4h0.4c0.4,0,0.8-0.3,0.9-0.6c0.6,0,1.2,0.3,1.6,0.8l1,1.2c0.6,0.7,1.4,1.1,2.3,1.1h4.2
	c0.7,0,1.3-0.6,1.3-1.3S16.1,18.3,15.4,18.3z M23.4,7C23.1,7,23,7.1,23,7.4v2.7h-1.5c-0.1,0-0.2-0.1-0.2-0.2V6.6
	c0-0.1,0.1-0.2,0.2-0.2h0.4c0.2,0,0.4-0.2,0.4-0.4c0-0.2-0.2-0.4-0.4-0.4h-0.4c-0.4,0-0.8,0.3-0.9,0.6c-0.6,0-1.2-0.3-1.6-0.8
	l-1-1.2c-0.6-0.7-1.4-1.1-2.3-1.1h-4.2c-0.7,0-1.3,0.6-1.3,1.3s0.6,1.3,1.3,1.3h1.7c0.2,0,0.4-0.2,0.4-0.4s-0.2-0.4-0.4-0.4h-1.7
	c-0.2,0-0.4-0.2-0.4-0.4c0-0.2,0.2-0.4,0.4-0.4h4.2c0.6,0,1.2,0.3,1.6,0.8l1,1.2c0.5,0.7,1.3,1,2.2,1.1v2.4H19c-0.7,0-1.4-0.3-2-0.8
	l-2.2-2.1c-0.2-0.2-0.2-0.4,0-0.6c0.2-0.2,0.4-0.2,0.6,0l1.7,1.6c0.2,0.2,0.4,0.1,0.6,0c0.2-0.2,0.1-0.4,0-0.6l-1.7-1.6
	c-0.5-0.5-1.3-0.4-1.7,0.1c-0.4,0.5-0.4,1.2,0,1.7l2.2,2.1c0.7,0.7,1.6,1,2.5,1h1.6c0.2,0.4,0.5,0.6,0.9,0.6h1.9
	c0.2,0,0.4-0.2,0.4-0.4V7.4C23.8,7.1,23.6,7,23.4,7z M16.1,17c-0.1-0.2-0.3-0.3-0.5-0.2c-0.2,0.1-0.3,0.3-0.2,0.5
	c0.1,0.2,0.2,0.2,0.4,0.2c0.1,0,0.1,0,0.2,0l0,0C16.1,17.5,16.2,17.2,16.1,17z M17.1,16.3c-0.1-0.2-0.4-0.2-0.6-0.1
	c-0.2,0.1-0.2,0.4-0.1,0.6c0.1,0.1,0.2,0.2,0.3,0.2c0.1,0,0.2,0,0.2-0.1l0,0C17.2,16.8,17.2,16.5,17.1,16.3z M15,17.5
	c0-0.2-0.3-0.4-0.5-0.3s-0.4,0.3-0.3,0.5c0,0.2,0.2,0.3,0.4,0.3c0,0,0.1,0,0.1,0c0,0,0,0,0,0C14.9,17.9,15,17.7,15,17.5z M18,15.5
	c-0.2-0.2-0.4-0.1-0.6,0c0,0,0,0,0,0c-0.1,0.2-0.1,0.4,0,0.6c0.1,0.1,0.2,0.1,0.3,0.1c0.1,0,0.2,0,0.3-0.1
	C18.1,15.9,18.1,15.6,18,15.5z M17.7,15.8L17.7,15.8L17.7,15.8L17.7,15.8z M19,13.3c-0.2-0.1-0.4,0.1-0.5,0.3
	c-0.1,0.2,0.1,0.4,0.3,0.5c0,0,0.1,0,0.1,0c0.2,0,0.3-0.1,0.4-0.3v0C19.3,13.5,19.2,13.3,19,13.3z M19.5,11.2
	C19.5,11.2,19.5,11.1,19.5,11.2c0-0.2-0.3-0.4-0.5-0.3c-0.2,0-0.4,0.3-0.3,0.5c0,0.2,0.2,0.3,0.4,0.3c0,0,0,0,0.1,0
	C19.4,11.6,19.5,11.4,19.5,11.2z M19.1,12c-0.2,0-0.4,0.1-0.4,0.4c0,0,0,0,0,0c0,0.2,0.2,0.4,0.4,0.4c0,0,0,0,0,0
	c0.2,0,0.4-0.2,0.4-0.4C19.5,12.3,19.4,12.1,19.1,12z M18.6,14.4c-0.2-0.1-0.4,0-0.6,0.2l0,0c-0.1,0.2,0,0.4,0.2,0.6
	c0.1,0,0.1,0,0.2,0c0.1,0,0.3-0.1,0.4-0.2l-0.4-0.2l0.4,0.2C18.9,14.8,18.8,14.5,18.6,14.4z M11.2,6.7c-0.1-0.2-0.3-0.3-0.5-0.2h0
	c-0.2,0.1-0.3,0.3-0.2,0.5c0.1,0.1,0.2,0.2,0.4,0.2c0.1,0,0.1,0,0.2,0C11.3,7.1,11.3,6.9,11.2,6.7z M12.4,6.3
	C12.4,6.1,12.1,6,11.9,6c0,0,0,0,0,0c-0.2,0.1-0.3,0.3-0.3,0.5c0,0.2,0.2,0.3,0.4,0.3c0,0,0.1,0,0.1,0C12.3,6.8,12.5,6.6,12.4,6.3z
	 M10.2,7.3C10,7.1,9.8,7.1,9.6,7.2l0.3,0.3L9.6,7.2C9.4,7.3,9.4,7.6,9.5,7.8c0.1,0.1,0.2,0.2,0.3,0.2c0.1,0,0.2,0,0.3-0.1l0,0
	C10.3,7.7,10.3,7.4,10.2,7.3z M8,10.2c-0.2-0.1-0.4,0.1-0.5,0.3c0,0,0,0,0,0c-0.1,0.2,0.1,0.4,0.3,0.5c0,0,0.1,0,0.1,0
	c0.2,0,0.3-0.1,0.4-0.3C8.3,10.4,8.2,10.2,8,10.2z M7.7,11.3c-0.2,0-0.4,0.2-0.4,0.4c0,0,0,0,0,0c0,0.2,0.2,0.4,0.4,0.4c0,0,0,0,0,0
	c0.2,0,0.4-0.2,0.4-0.4C8.1,11.5,8,11.4,7.7,11.3z M8.5,9C8.3,8.9,8.1,9,8,9.2l0,0c-0.1,0.2,0,0.4,0.2,0.5c0.1,0,0.1,0,0.2,0
	c0.2,0,0.3-0.1,0.4-0.2C8.8,9.4,8.7,9.1,8.5,9z M9.2,8.1C9.1,7.9,8.8,8,8.7,8.1c0,0,0,0,0,0C8.5,8.3,8.6,8.6,8.7,8.7
	C8.8,8.8,8.9,8.8,9,8.8c0.1,0,0.2-0.1,0.3-0.2C9.4,8.5,9.4,8.2,9.2,8.1z M8.2,12.9c0-0.2-0.3-0.4-0.5-0.3c-0.2,0-0.4,0.3-0.3,0.5v0
	c0,0.2,0.2,0.3,0.4,0.3c0,0,0,0,0.1,0C8.1,13.3,8.2,13.1,8.2,12.9z M14.8,9.8c-0.5,0-1,0.2-1.4,0.6C13.1,10,12.6,9.8,12,9.8
	c-1,0-1.9,0.8-1.9,1.9c0,0.6,0.2,1.1,0.7,1.4c0,0,0,0,0,0l2.3,1.8c0.1,0.1,0.2,0.1,0.3,0.1c0.1,0,0.2,0,0.3-0.1l2.4-1.9c0,0,0,0,0,0
	c0.4-0.4,0.6-0.8,0.6-1.3C16.7,10.7,15.8,9.8,14.8,9.8z M15.6,12.4l-2.1,1.7l-2.1-1.6C11.1,12.3,11,12,11,11.7
	c0-0.6,0.5-1.1,1.1-1.1c0.4,0,0.8,0.3,1,0.7c0.1,0.2,0.2,0.3,0.4,0.3s0.3-0.1,0.4-0.3c0.2-0.4,0.6-0.7,1-0.7c0.6,0,1.1,0.5,1.1,1.1
	C15.9,12,15.7,12.2,15.6,12.4z M3.4,17.5c0.2,0,0.4,0.2,0.4,0.4c0,0.2-0.2,0.4-0.4,0.4C3.2,18.4,3,18.2,3,18
	C3,17.7,3.2,17.5,3.4,17.5z" id="id_107"></path>
<g>
<g>
<g>
<linearGradient id="SVGID_2_" gradientUnits="userSpaceOnUse" x1="23.1067" y1="6.3573" x2="23.6281" y2="5.7359">
<stop offset="5.025126e-03" style="stop-color: rgb(37, 153, 176);" id="id_111"></stop>
<stop offset="1" style="stop-color: rgb(42, 154, 176);" id="id_112"></stop>
</linearGradient>
<circle class="st1" cx="23.4" cy="6" r="0.4" id="id_108"></circle>
</g>
</g>
</g>
</svg>