<svg xmlns="http://www.w3.org/2000/svg" xml:space="preserve" width="1.70666in" height="1.70666in" version="1.1" style="shape-rendering:geometricPrecision; text-rendering:geometricPrecision; image-rendering:optimizeQuality; fill-rule:evenodd; clip-rule:evenodd" viewBox="0 0 1706.66 1706.66" xmlns:xlink="http://www.w3.org/1999/xlink" xmlns:xodm="http://www.corel.com/coreldraw/odm/2003">
<defs>
<style type="text/css">
   
    .fil0 {fill:#00CCFF}
    .fil1 {fill:#96EAFF}
   
  </style>
</defs>
<g id="Layer_x0020_1">
<metadata id="CorelCorpID_0Corel-Layer"></metadata>
<path class="fil0" d="M452.6 1477.52c-5.12,0 -10.24,-1.96 -14.14,-5.87l-173.8 -173.8c-18.63,-18.63 9.67,-46.92 28.28,-28.29l173.8 173.8c12.63,12.63 3.53,34.16 -14.14,34.16z" id="id_121" style="fill: rgb(24, 148, 173);"></path>
<path class="fil0" d="M278.8 1477.52c-17.63,0 -26.79,-21.52 -14.14,-34.16l173.8 -173.78c18.63,-18.65 46.89,9.7 28.28,28.3l-173.8 173.8c-3.89,3.9 -9.01,5.84 -14.14,5.84z" id="id_122" style="fill: rgb(22, 148, 173);"></path>
<path class="fil0" d="M365.72 1513.51c-11.04,0 -20,-8.97 -20,-20l0 -245.79c0,-26.33 40,-26.32 40,0l0 245.79c0,11.04 -8.96,20 -20,20z" id="id_123" style="fill: rgb(21, 148, 173);"></path>
<path class="fil0" d="M777.68 1477.52c-5.12,0 -10.24,-1.96 -14.13,-5.87l-173.8 -173.8c-18.64,-18.64 9.68,-46.91 28.28,-28.29l173.8 173.8c12.65,12.65 3.51,34.16 -14.14,34.16z" id="id_124" style="fill: rgb(17, 147, 173);"></path>
<path class="fil0" d="M603.89 1477.52c-17.63,0 -26.79,-21.52 -14.13,-34.16l173.8 -173.8c18.65,-18.65 46.89,9.7 28.28,28.29l-173.8 173.8c-3.92,3.92 -9.03,5.87 -14.14,5.87z" id="id_125" style="fill: rgb(14, 146, 173);"></path>
<path class="fil0" d="M690.78 1513.51c-11.04,0 -20,-8.97 -20,-20l0 -245.79c0,-26.33 40,-26.32 40,0l0 245.79c0,11.04 -8.94,20 -20,20z" id="id_126" style="fill: rgb(13, 145, 171);"></path>
<path class="fil0" d="M1102.76 1477.52c-5.11,0 -10.23,-1.96 -14.15,-5.87l-173.82 -173.8c-18.65,-18.64 9.7,-46.91 28.3,-28.29l173.81 173.8c12.65,12.65 3.51,34.16 -14.14,34.16z" id="id_127" style="fill: rgb(21, 146, 171);"></path>
<path class="fil0" d="M928.94 1477.52c-17.64,0 -26.81,-21.51 -14.15,-34.16l173.82 -173.8c18.65,-18.65 46.91,9.7 28.3,28.29l-173.82 173.8c-3.89,3.92 -9.04,5.87 -14.14,5.87z" id="id_128" style="fill: rgb(18, 141, 166);"></path>
<path class="fil0" d="M1015.86 1513.51c-11.04,0 -20,-8.97 -20,-20l0 -245.79c0,-26.33 40,-26.32 40,0l0 245.79c0.02,11.04 -8.95,20 -20,20z" id="id_129" style="fill: rgb(20, 139, 163);"></path>
<path class="fil0" d="M1427.82 1477.52c-5.11,0 -10.24,-1.96 -14.15,-5.87l-173.8 -173.8c-18.65,-18.64 9.69,-46.91 28.29,-28.29l173.8 173.8c12.64,12.64 3.52,34.16 -14.14,34.16z" id="id_130" style="fill: rgb(16, 137, 161);"></path>
<path class="fil0" d="M1254.04 1477.52c-17.64,0 -26.81,-21.51 -14.15,-34.16l173.8 -173.8c18.65,-18.65 46.91,9.7 28.3,28.29l-173.8 173.8c-3.91,3.92 -9.04,5.87 -14.14,5.87z" id="id_131" style="fill: rgb(12, 134, 158);"></path>
<path class="fil0" d="M1340.92 1513.51c-11.04,0 -20,-8.97 -20,-20l0 -245.79c0,-26.33 40,-26.32 40,0l0 245.79c0.02,11.04 -8.96,20 -20,20z" id="id_132" style="fill: rgb(15, 134, 158);"></path>
<path class="fil0" d="M1103.9 552.57c-11.04,0 -20,-8.96 -20,-20l0 -213.74c0,-127.13 -103.43,-230.58 -230.58,-230.58 -127.15,0 -230.58,103.43 -230.58,230.58l0 213.74c0,26.33 -40,26.33 -40,0l0 -213.74c0,-149.19 121.37,-270.56 270.56,-270.56 149.19,0 270.58,121.37 270.58,270.56l0 213.74c0.02,11.06 -8.94,20 -19.98,20zm-66.67 0c-11.04,0 -20,-8.96 -20,-20l0 -213.74c0,-90.37 -73.53,-163.91 -163.91,-163.91 -90.37,0 -163.91,73.53 -163.91,163.91l0 213.74c0,26.33 -40,26.33 -40,0l0 -213.74c0,-112.44 91.47,-203.91 203.91,-203.91 112.44,0 203.93,91.46 203.93,203.91l0 213.74c0,11.06 -8.97,20 -20.02,20z" id="id_133" style="fill: rgb(17, 109, 128);"></path>
<path class="fil0" d="M1113.57 1122.84l-520.5 0c-42.22,0 -76.56,-34.36 -76.56,-76.57l0 -457.13c0,-42.22 34.34,-76.56 76.56,-76.56l520.5 -0.01c42.22,0 76.58,34.35 76.58,76.57l0 457.15c-0.01,42.21 -34.37,76.56 -76.59,76.56zm-520.5 -570.27c-20.17,0 -36.57,16.41 -36.57,36.57l0 457.15c0,20.15 16.41,36.56 36.57,36.56l520.5 0c20.17,0 36.57,-16.4 36.57,-36.56l0.01 -457.14c0,-20.17 -16.41,-36.57 -36.57,-36.57l-520.51 -0z" id="id_134" style="fill: rgb(45, 118, 133);"></path>
<path class="fil0" d="M853.32 850.61c-104.41,0 -104.41,-158.66 0,-158.66 104.43,0 104.43,158.66 0,158.66zm0 -118.67c-51.76,0 -51.77,78.68 0,78.68 51.76,0 51.77,-78.68 0,-78.68z" id="id_135" style="fill: rgb(27, 117, 135);"></path>
<path class="fil0" d="M853.32 943.48c-11.04,0 -20,-8.97 -20,-20l0 -92.88c0,-26.33 40,-26.33 40,0l0 92.88c0,11.04 -8.96,20 -20,20z" id="id_136" style="fill: rgb(40, 122, 138);"></path>
<path class="fil1" d="M1057.25 318.83l0 193.74 26.65 0 0 -193.74c0,-127.13 -103.43,-230.58 -230.58,-230.58 -127.15,0 -230.58,103.43 -230.58,230.58l0 193.75 26.67 0 0 -193.75c0,-112.44 91.47,-203.91 203.91,-203.91 112.44,0 203.93,91.46 203.93,203.91z" id="id_137" style="fill: rgb(2, 145, 173);"></path>
<path class="fil1" d="M853.32 810.61c51.76,0 51.77,-78.68 0,-78.68 -51.76,0 -51.77,78.68 0,78.68z" id="id_138" style="fill: rgb(10, 108, 128);"></path>
<path class="fil1" d="M1627.87 1122.84l-1549.09 0c-21.37,0 -38.78,17.39 -38.78,38.78l0 418.01c0,21.37 17.39,38.77 38.78,38.77l1549.09 0c21.38,0 38.77,-17.39 38.77,-38.77l0 -418.01c0,-21.39 -17.39,-38.78 -38.77,-38.78zm-387.98 320.52l72.75 -72.75 -72.76 -72.76c-18.65,-18.64 9.69,-46.91 28.29,-28.29l52.76 52.76 0 -74.59c0,-26.33 40,-26.32 40,0l0 74.59 52.76 -52.76c18.65,-18.65 46.91,9.7 28.3,28.29l-72.76 72.76 72.75 72.75c12.64,12.64 3.52,34.16 -14.14,34.16 -5.11,0 -10.24,-1.96 -14.15,-5.87l-52.75 -52.75 0 74.61c0.02,26.32 -40,26.32 -40,0l0 -74.61 -52.74 52.74c-18.32,18.36 -47.19,-9.41 -28.29,-28.29zm-151.28 -173.8c18.65,-18.65 46.91,9.7 28.3,28.29l-72.76 72.76 72.76 72.75c18.87,18.87 -9.91,46.65 -28.29,28.29l-52.75 -52.75 0 74.61c0.02,26.33 -40,26.32 -40,0l0 -74.63 -52.77 52.77c-18.29,18.35 -47.21,-9.39 -28.3,-28.29l72.76 -72.76 -72.76 -72.76c-18.65,-18.64 9.7,-46.91 28.3,-28.29l52.78 52.77 0 -74.6c0,-26.33 40,-26.32 40,0l0 74.58 52.76 -52.75zm-369.54 101.06l72.75 72.75c18.88,18.88 -9.93,46.65 -28.28,28.29l-52.77 -52.77 0 74.63c0,26.33 -40,26.31 -40,0l0 -74.62 -52.75 52.75c-18.35,18.36 -47.15,-9.43 -28.28,-28.29l72.75 -72.75 -72.76 -72.76c-18.64,-18.64 9.68,-46.91 28.28,-28.29l52.76 52.76 0 -74.59c0,-26.33 40,-26.32 40,0l0 74.6 52.78 -52.78c18.65,-18.65 46.89,9.7 28.28,28.29l-72.76 72.76zm-252.33 72.75c18.88,18.88 -9.93,46.65 -28.28,28.29l-52.75 -52.75 0 74.61c0,26.33 -40,26.31 -40,0l0 -74.62 -52.78 52.78c-18.29,18.31 -47.19,-9.42 -28.28,-28.31l72.76 -72.75 -72.76 -72.76c-18.63,-18.63 9.67,-46.92 28.28,-28.29l52.78 52.78 0 -74.6c0,-26.33 40,-26.32 40,0l0 74.59 52.75 -52.74c18.63,-18.65 46.89,9.7 28.28,28.3l-72.74 72.74 72.74 72.74z" id="id_139" style="fill: rgb(6, 105, 125);"></path>
<path class="fil0" d="M1627.87 1658.4l-1549.09 0c-43.43,0 -78.76,-35.35 -78.76,-78.78l0 -418.01c0,-43.44 35.33,-78.79 78.76,-78.79l1549.09 0.01c43.43,0 78.78,35.35 78.78,78.79l0 418.01c-0.01,43.43 -35.34,78.77 -78.78,78.77zm-1549.09 -535.56c-21.37,0 -38.78,17.39 -38.78,38.78l0 418.01c0,21.37 17.39,38.77 38.78,38.77l1549.09 0c21.38,0 38.77,-17.39 38.77,-38.77l0 -418.01c0,-21.39 -17.39,-38.78 -38.77,-38.78l-1549.09 0z" id="id_140" style="fill: rgb(11, 106, 125);"></path>
</g>
</svg>